# xmcd CD database file
# Copyright (C) 1993-1998 Ti Kan
#
# Track frame offsets:
#	183
#	14548
#	27845
#	44833
#	55378
#	71923
#	89465
#	111113
#	129190
#	145165
#	160205
#	172140
#	194190
#	205105
#	222985
#	242403
#
# Disc length: 3447 seconds
#
# Revision: 0
# Processed by: cddbd v1.4b41PL1 Copyright (c) Steve Scherf et al.
# Submitted via: CDmax 1.5
#
DISCID=f50d7510
DTITLE=Memphis Slim - Harlem Bound
DYEAR=1900
DGENRE=
TTITLE0=Harlem Bound
TTITLE1=El Capitan
TTITLE2=Just Landed in  Your Town
TTITLE3=John Henry
TTITLE4=Baby Gone
TTITLE5=Cow Cow Blues
TTITLE6=Miss Ida B.
TTITLE7=Fourty Four Blues
TTITLE8=Trouble in My Mind
TTITLE9=Worried Life Blues
TTITLE10=Don't Want My Rooster Growin' After the Sun Goes Down
TTITLE11=Lonesome in My Bedroom
TTITLE12=Diggin' My Potatoes
TTITLE13=In The Evening
TTITLE14=Red Haired Boogie
TTITLE15=Blue And Disgusted
EXTD=
EXTT0=
EXTT1=
EXTT2=
EXTT3=
EXTT4=
EXTT5=
EXTT6=
EXTT7=
EXTT8=
EXTT9=
EXTT10=
EXTT11=
EXTT12=
EXTT13=
EXTT14=
EXTT15=
PLAYORDER=
